# xmcd
#
# Track frame offsets: 
#        150
#        13697
#        27581
#        36389
#        45182
#        57552
#        66738
#        89100
#        102396
#        108451
#        126451
#
# Disc length: 1860 seconds
#
# Revision: 0
# Processed by: cddbd v1.5.2PL0 Copyright (c) Steve Scherf et al.
# Submitted via: ExactAudioCopy v0.99pb5
#
DISCID=a807420b
DTITLE=Clarence Gatemouth Brown - San Antonio Ballbuster
DYEAR=1996
DGENRE=Blues
TTITLE0=May The Bird Of Paradise Fly Up Your Nose (alt take)
TTITLE1=Cross My Heart
TTITLE2=Dont Start Me Talking
TTITLE3=Gates Start Me Talking
TTITLE4=My Time Is Expensive
TTITLE5=Ninety Nine
TTITLE6=Goin Down Slow
TTITLE7=Long Way Home
TTITLE8=Tippin In
TTITLE9=For Now So Long
TTITLE10=May The Bird Of Paradise Fly Up Your Nose
EXTD=
EXTT0=
EXTT1=
EXTT2=
EXTT3=
EXTT4=
EXTT5=
EXTT6=
EXTT7=
EXTT8=
EXTT9=
EXTT10=
PLAYORDER=
